<svg xmlns="http://www.w3.org/2000/svg" viewBox="0 0 100 100" fill="#0a0101">
  <defs>
    <style>
      .cls-1 {
        isolation: isolate;
      }

      .cls-2 {
        fill: #f8c40f;
      }

      .cls-3, .cls-4, .cls-6 {
        fill: #fff;
      }

      .cls-3 {
        opacity: 0.4;
      }

      .cls-3, .cls-6 {
        mix-blend-mode: soft-light;
      }

      .cls-5 {
        fill: #f65066;
      }
    </style>
  </defs>
  <title>2267950</title>
  <g class="cls-1">
    <g id="OBJECTS">
      <g>
        <circle class="cls-2" cx="50" cy="50" r="45" transform="translate(-7.03 91.8) rotate(-81.24)"/>
        <path class="cls-3" d="M80.38,16.8A45,45,0,0,1,16.8,80.38,45,45,0,1,0,80.38,16.8Z"/>
        <path d="M76.46,28.09a3,3,0,0,1,2.73,1.74,1.37,1.37,0,0,0,2.49-1.16,5.79,5.79,0,0,0-5-3.32c-1.76-.06-2,2.67-.26,2.74Z"/>
        <path d="M42,18.6a5.78,5.78,0,0,0-6-.22,1.38,1.38,0,0,0,1.34,2.4,3,3,0,0,1,3.23.19c1.47,1,2.85-1.39,1.39-2.37Z"/>
        <g>
          <path d="M21.56,46.05c.11,2.06,1.65,21.68,23.27,27.84C66.14,80,77.08,64.37,78.44,62.27Z"/>
          <path d="M20.14,46c1.7,29.3,43,42.06,59.51,17a1.44,1.44,0,0,0-.82-2.11L22,44.68a1.43,1.43,0,0,0-.78,2.74L78.05,63.63l-.83-2.1C62.29,84.2,24.52,72.57,23,46.06,22.88,44.24,20,44.2,20.14,46Z"/>
          <path class="cls-4" d="M74.15,67.28a28.77,28.77,0,0,0,4.29-5L21.56,46.05a30,30,0,0,0,1.23,6.59Z"/>
          <path class="cls-5" d="M29.51,64.71a32,32,0,0,0,15.32,9.18A31.16,31.16,0,0,0,62,74.26c-1.12-4.3-6.86-8.82-14.55-11C39.92,61.11,32.84,61.84,29.51,64.71Z"/>
          <path class="cls-6" d="M44.83,73.89a31.29,31.29,0,0,0,16.4.55,17.14,17.14,0,0,0-9.12-3.93c-4.74-.71-9,.16-11.24,2A37.46,37.46,0,0,0,44.83,73.89Z"/>
        </g>
        <path d="M71.21,45.76a5.38,5.38,0,0,1,8.54,4.33c0,1.75,2.78,2,2.74.2a8.15,8.15,0,0,0-13-6.63c-1.45,1,.33,3.1,1.77,2.1Z"/>
        <path d="M36.15,36.48a5.38,5.38,0,0,0-9.56.45c-.76,1.58-3.35.66-2.58-.94a8.15,8.15,0,0,1,14.61-.7c.91,1.52-1.57,2.7-2.47,1.19Z"/>
        <path class="cls-6" d="M52,15.46c5.75,6.89-3.84,11.63-13.56,19.73S22.58,51.71,16.83,44.82,14.3,25.78,24,17.67,46.27,8.58,52,15.46Z"/>
      </g>
    </g>
  </g>
</svg>